<svg width="67" height="70" viewBox="0 0 67 70" fill="none" xmlns="http://www.w3.org/2000/svg">
<g id="calendar-days_svgrepo.com">
<path id="Vector" d="M8.375 26.25H58.625M19.5417 8.75V14.5833M47.4583 8.75V14.5833M16.75 35H22.3333M30.7083 35H36.2917M44.6667 35H50.25M16.75 43.75H22.3333M30.7083 43.75H36.2917M44.6667 43.75H50.25M16.75 52.5H22.3333M30.7083 52.5H36.2917M44.6667 52.5H50.25M17.3083 61.25H49.6917C52.8186 61.25 54.3822 61.25 55.5765 60.6142C56.627 60.055 57.4813 59.1625 58.0164 58.065C58.625 56.8173 58.625 55.1836 58.625 51.9167V23.9167C58.625 20.6497 58.625 19.0162 58.0164 17.7684C57.4813 16.6708 56.627 15.7784 55.5765 15.2191C54.3822 14.5833 52.8186 14.5833 49.6917 14.5833H17.3083C14.1814 14.5833 12.6179 14.5833 11.4236 15.2191C10.373 15.7784 9.51883 16.6708 8.98356 17.7684C8.375 19.0162 8.375 20.6497 8.375 23.9167V51.9167C8.375 55.1836 8.375 56.8173 8.98356 58.065C9.51883 59.1625 10.373 60.055 11.4236 60.6142C12.6179 61.25 14.1814 61.25 17.3083 61.25Z" stroke="black" stroke-width="5" stroke-linecap="round"/>
</g>
</svg>
