<svg width="60" height="60" viewBox="0 0 60 60" fill="none" xmlns="http://www.w3.org/2000/svg">
<g id="date-alt-check_svgrepo.com">
<path id="secondary" d="M30 52.5C38.2843 52.5 45 45.7843 45 37.5C45 29.2157 38.2843 22.5 30 22.5C21.7157 22.5 15 29.2157 15 37.5C15 45.7843 21.7157 52.5 30 52.5Z" fill="#2CA9BC"/>
<path id="primary" d="M18.85 47.5H10C9.33696 47.5 8.70107 47.2366 8.23223 46.7678C7.76339 46.2989 7.5 45.663 7.5 45V12.5C7.5 11.837 7.76339 11.2011 8.23223 10.7322C8.70107 10.2634 9.33696 10 10 10H50C50.663 10 51.2989 10.2634 51.7678 10.7322C52.2366 11.2011 52.5 11.837 52.5 12.5V45C52.5 45.663 52.2366 46.2989 51.7678 46.7678C51.2989 47.2366 50.663 47.5 50 47.5H41.15" stroke="black" stroke-width="5" stroke-linecap="round" stroke-linejoin="round"/>
<path id="primary_2" d="M7.5 22.5H52.5M40 7.5V15M20 7.5V15M30 22.5C27.0333 22.5 24.1332 23.3797 21.6664 25.028C19.1997 26.6762 17.2771 29.0189 16.1418 31.7597C15.0065 34.5006 14.7094 37.5166 15.2882 40.4264C15.867 43.3361 17.2956 46.0088 19.3934 48.1066C21.4912 50.2044 24.1639 51.633 27.0736 52.2118C29.9834 52.7906 32.9994 52.4935 35.7403 51.3582C38.4811 50.2229 40.8238 48.3003 42.472 45.8336C44.1203 43.3668 45 40.4667 45 37.5C45 33.5218 43.4196 29.7064 40.6066 26.8934C37.7936 24.0804 33.9782 22.5 30 22.5Z" stroke="black" stroke-width="5" stroke-linecap="round" stroke-linejoin="round"/>
<path id="primary_3" d="M25 40L27.5 42.5L35 35" stroke="black" stroke-width="5" stroke-linecap="round" stroke-linejoin="round"/>
</g>
</svg>
